<?xml version="1.0" encoding="UTF-8"?>
<svg version="1.1" xmlns="http://www.w3.org/2000/svg" width="837" height="786">
<path d="M0 0 C0.99 0.33 1.98 0.66 3 1 C3 1.99 3 2.98 3 4 C3.84862462 3.9290515 4.69724925 3.85810301 5.57158977 3.78500456 C14.05432143 3.12099759 22.45745683 2.86332976 30.96366882 2.89320374 C32.31004859 2.89420286 33.65642874 2.89474987 35.00280887 2.89489073 C38.65951207 2.89651814 42.31617852 2.90434447 45.97287023 2.91325247 C49.93249657 2.92175132 53.89212733 2.92429196 57.85176086 2.92750549 C64.69851516 2.9337772 71.54525731 2.94349953 78.39200401 2.95540047 C88.29429697 2.97243205 98.19658697 2.9819455 108.09889136 2.9892792 C124.17229507 3.0011998 140.24569406 3.01614212 156.3190918 3.03442383 C157.75947465 3.03605901 157.75947465 3.03605901 159.22895614 3.03772723 C172.88431426 3.05336883 186.53966681 3.07197212 200.19501952 3.0917251 C201.15860986 3.09311842 202.12220019 3.09451173 203.11499023 3.09594727 C204.07740246 3.0973408 205.03981469 3.09873433 206.03139093 3.10017008 C222.06107109 3.12317983 238.09074762 3.13850956 254.12044173 3.14750665 C264.00369193 3.15336483 273.88689193 3.16575232 283.77012233 3.18647944 C290.53064718 3.20015578 297.29115442 3.20667869 304.05169298 3.20748956 C307.95488189 3.20819546 311.85799581 3.2122363 315.76116562 3.2249527 C319.98520312 3.23864307 324.20909288 3.23700081 328.43315125 3.23377991 C329.67553029 3.24028771 330.91790934 3.24679551 332.19793624 3.25350052 C333.32389576 3.25013512 334.44985529 3.24676973 335.60993481 3.24330235 C336.58544172 3.24460386 337.56094864 3.24590537 338.56601638 3.24724633 C341.25857885 3.16544983 341.25857885 3.16544983 344 1 C344 1.66 344 2.32 344 3 C344.78375 2.814375 345.5675 2.62875 346.375 2.4375 C349 2 349 2 351 3 C351.33 2.34 351.66 1.68 352 1 C352 1.99 352 2.98 352 4 C355.51933988 5.75966994 359.5108697 5.97763028 363.375 6.5625 C364.72851562 6.76927368 364.72851562 6.76927368 366.109375 6.98022461 C372.02209933 7.83632017 377.70626845 8.24920862 383.6875 7.91015625 C386.28041864 8.01089464 387.78904293 8.68468526 390 10 C388.02 10 386.04 10 384 10 C385.60049704 10.39036513 387.20562371 10.76178619 388.8125 11.125 C389.70582031 11.33382813 390.59914063 11.54265625 391.51953125 11.7578125 C394.25246634 12.28880522 394.25246634 12.28880522 397 10 C397.33 10.99 397.66 11.98 398 13 C402.725109 15.41726629 407.71529678 16.40651563 413 16 C413 16.66 413 17.32 413 18 C413.6798999 18.28198242 414.3597998 18.56396484 415.06030273 18.85449219 C418.18651767 20.15183552 421.31201203 21.45090634 424.4375 22.75 C425.50677734 23.1934375 426.57605469 23.636875 427.67773438 24.09375 C430.78868452 25.38760082 433.89525004 26.69134865 437 28 C437.91023926 28.37962891 438.82047852 28.75925781 439.75830078 29.15039062 C440.97815674 29.67149414 440.97815674 29.67149414 442.22265625 30.203125 C442.93301025 30.50379883 443.64336426 30.80447266 444.37524414 31.11425781 C446 32 446 32 447 34 C449.32156597 34.40729228 451.6568787 34.74438677 454 35 C454 35.99 454 36.98 454 38 C454.680625 38.2475 455.36125 38.495 456.0625 38.75 C459.56865083 40.24197908 462.71620368 42.06835511 466 44 C466.33 43.34 466.66 42.68 467 42 C469 43 469 43 469.8203125 45.33203125 C471.28380918 48.64185984 472.8780768 49.70881925 475.875 51.6875 C476.73867188 52.26886719 477.60234375 52.85023437 478.4921875 53.44921875 C480.86269082 54.99268389 480.86269082 54.99268389 483.0078125 55.89453125 C485.84484431 57.46880576 487.74577476 59.67063392 490 62 C491.12071107 63.05037215 492.24879729 64.09291181 493.3828125 65.12890625 C509.56733831 79.95572778 523.92294114 96.01575596 535.28564453 114.88623047 C536.14209425 116.28818427 537.06464656 117.64940956 538 119 C538.66 119 539.32 119 540 119 C541 122 541 122 541 125 C542.80968308 127.95581569 544.54711684 130.54711684 547 133 C547.35975059 134.66116477 547.68913999 136.32899583 548 138 C548.65238558 139.81528201 549.34732295 141.61559301 550.07421875 143.40234375 C550.49179443 144.44664551 550.90937012 145.49094727 551.33959961 146.56689453 C551.78440674 147.67919434 552.22921387 148.79149414 552.6875 149.9375 C559.84147037 168.19931989 567.4574459 189.1011034 567 209 C567.66 209.33 568.32 209.66 569 210 C569.63162401 235.66980431 570.19260533 261.32126499 570 287 C570.66 287.33 571.32 287.66 572 288 C571.34 288 570.68 288 570 288 C570.00092179 288.93831476 570.00184359 289.87662952 570.00279331 290.84337807 C570.02507929 313.76701561 570.04146654 336.69065174 570.05181217 359.61429787 C570.05694934 370.70038871 570.06394237 381.78647237 570.07543945 392.87255859 C570.08546564 402.5450136 570.09187215 412.21746339 570.09408849 421.88992345 C570.09538224 427.00245458 570.09838213 432.1149708 570.10573006 437.2274971 C570.1787197 490.11340339 570.1787197 490.11340339 567.375 510.75 C567.20460205 512.00659424 567.0342041 513.26318848 566.85864258 514.55786133 C561.96264099 548.17059209 549.600965 584.61786929 528.12890625 611.4140625 C526.79696118 613.12157509 526.79696118 613.12157509 526 616 C524.69128476 617.35750506 523.35343334 618.68707435 522 620 C520.47993745 621.79570769 518.98081973 623.60929619 517.5 625.4375 C516.7471875 626.36433594 515.994375 627.29117188 515.21875 628.24609375 C513.73234641 630.0910137 512.27396275 631.95884267 510.84375 633.84765625 C510.2353125 634.55792969 509.626875 635.26820313 509 636 C508.34 636 507.68 636 507 636 C506.89993652 636.60102539 506.79987305 637.20205078 506.69677734 637.82128906 C505.8669854 640.41591531 504.97278508 641.19383997 502.8515625 642.859375 C500.38636901 644.86116737 498.00700613 646.88357848 495.7109375 649.078125 C488.15372825 656.27027881 480.39611041 662.81500119 472 669 C471.0409375 669.75152344 470.081875 670.50304687 469.09375 671.27734375 C449.91150357 685.83356863 421.0936367 703.58510184 397 707 C397 707.99 397 708.98 397 710 C395.9275 710.144375 394.855 710.28875 393.75 710.4375 C377.04086284 712.94387057 353.12001536 723.87998464 341 736 C339.74436646 736.8763575 338.47062956 737.72691841 337.1875 738.5625 C333.4033578 741.05714151 329.66106438 743.60323517 325.9375 746.1875 C325.39440186 746.56390625 324.85130371 746.9403125 324.29174805 747.328125 C321.8803086 748.99963202 319.46980511 750.67242729 317.06298828 752.35058594 C310.09858838 757.20471646 303.12032639 762.03516199 295.9375 766.5625 C294.95652344 767.18253906 293.97554687 767.80257812 292.96484375 768.44140625 C284.80807896 772.72934979 277.37042768 772.52870718 268.75 769.875 C264.25684935 768.00736509 261.81172502 764.8556446 259 761 C257.93830303 759.5619068 256.87580787 758.12440253 255.8125 756.6875 C255.34457031 756.03136719 254.87664062 755.37523437 254.39453125 754.69921875 C252.92360888 752.73870421 252.92360888 752.73870421 250 751 C250 750.34 250 749.68 250 749 C248.16666667 745.83333333 248.16666667 745.83333333 245 744 C245 743.34 245 742.68 245 742 C237.21437625 732.14181437 228.10968321 723.14234681 216 719 C213.35315751 719.30706617 213.35315751 719.30706617 211 720 C208.1875 719.5625 208.1875 719.5625 206 719 C206.33 718.34 206.66 717.68 207 717 C198.73254154 716.0743807 190.57308397 715.86755735 182.2590332 715.90234375 C180.91346289 715.90426839 179.56789185 715.9057296 178.22232056 715.9067688 C175.34038754 715.90991007 172.45848447 715.9161506 169.57656288 715.92483521 C164.97342293 715.93854428 160.37029238 715.94429364 155.76713562 715.94897461 C145.12743238 715.9609609 134.48775373 715.98273928 123.84806824 716.00520325 C111.83231045 716.03053828 99.81656143 716.05149155 87.80078125 716.0625 C86.64173271 716.06368395 86.64173271 716.06368395 85.45926905 716.06489182 C61.29471084 716.08786081 37.1511182 715.88380503 13 715 C12.67 715.66 12.34 716.32 12 717 C11.34 716.67 10.68 716.34 10 716 C7.52167341 715.84373424 5.06688669 715.74186802 2.5859375 715.68359375 C1.85629791 715.66281265 1.12665833 715.64203156 0.37490845 715.62062073 C-1.95829763 715.55518083 -4.29161721 715.49626632 -6.625 715.4375 C-8.20574095 715.39430947 -9.78647039 715.35069501 -11.3671875 715.30664062 C-15.24467504 715.19950519 -19.12227685 715.09822218 -23 715 C-23 714.34 -23 713.68 -23 713 C-23.95390625 713.03996094 -24.9078125 713.07992187 -25.890625 713.12109375 C-49.40192543 713.06814037 -75.77856274 701.21357069 -96.2199707 690.72241211 C-97.19925537 690.22362549 -98.17854004 689.72483887 -99.1875 689.2109375 C-100.47720703 688.53490479 -100.47720703 688.53490479 -101.79296875 687.84521484 C-104.11851121 686.68695046 -104.11851121 686.68695046 -107 688 C-107 687.01 -107 686.02 -107 685 C-107.83660156 684.55011719 -108.67320312 684.10023438 -109.53515625 683.63671875 C-117.16973831 679.44440145 -124.22612151 674.85087581 -131.11157227 669.5065918 C-134.64014241 666.67028767 -134.64014241 666.67028767 -139 666 C-139.495 664.515 -139.495 664.515 -140 663 C-141.63213757 661.51988931 -143.33090189 660.11241282 -145.0625 658.75 C-149.31979057 655.36301492 -153.43200917 651.89081904 -157.44140625 648.21484375 C-158.93355065 646.79507954 -158.93355065 646.79507954 -161 647 C-162.02611949 645.34928604 -163.02308143 643.68029994 -164 642 C-165.39585785 640.18523997 -165.39585785 640.18523997 -167 639 C-167.99 639 -168.98 639 -170 639 C-170.185625 638.175 -170.37125 637.35 -170.5625 636.5 C-172.9006489 630.80711571 -176.89405077 626.40396615 -182 623 C-182.33 622.67 -182.66 622.34 -183 622 C-183.99 621.67 -184.98 621.34 -186 621 C-186 620.071875 -186 619.14375 -186 618.1875 C-186.81118447 612.16506985 -191.36167602 607.62222871 -195 603 C-203.26780388 592.36707863 -208.31420963 579.11562631 -214 567 C-214.66 567 -215.32 567 -216 567 C-216.11214844 566.00484375 -216.22429687 565.0096875 -216.33984375 563.984375 C-216.92573361 559.88004601 -218.17015546 556.14232451 -219.5625 552.25 C-222 545.38739669 -222 545.38739669 -222 542 C-222.66 541.67 -223.32 541.34 -224 541 C-224.52734375 538.76953125 -224.52734375 538.76953125 -224.9375 535.8125 C-225.64478385 531.06521081 -226.55015827 526.42783233 -227.625 521.75 C-228.74569814 516.67025264 -229.31107507 512.18458454 -229 507 C-229.66 506.67 -230.32 506.34 -231 506 C-231.68988521 492.3344015 -232.35503394 478.66779144 -233 465 C-233.33 465 -233.66 465 -234 465 C-233.99476318 464.26475098 -233.98952637 463.52950195 -233.98413086 462.77197266 C-233.96314084 459.38965739 -233.95027049 456.0073559 -233.9375 452.625 C-233.92912109 451.46871094 -233.92074219 450.31242187 -233.91210938 449.12109375 C-233.89494744 443.04576749 -234.07975009 437.10983446 -234.77075195 431.07324219 C-235.48697999 424.59591689 -234.93406881 418.42172306 -234 412 C-233.96868316 409.63557845 -233.99740835 407.28160932 -234.0625 404.91796875 C-234 403 -234 403 -233 401 C-232.53755748 395.62276143 -232.93189553 391.04100465 -235 386 C-234.67 385.67 -234.34 385.34 -234 385 C-234.2475 383.515 -234.2475 383.515 -234.5 382 C-234.7475 380.515 -234.7475 380.515 -235 379 C-234.67 378.67 -234.34 378.34 -234 378 C-233.90478555 375.1854168 -233.87446402 372.39543588 -233.88647461 369.58056641 C-233.88632858 368.69766434 -233.88618256 367.81476227 -233.8860321 366.90510559 C-233.88673179 363.9705667 -233.8945284 361.03609038 -233.90234375 358.1015625 C-233.9042082 356.06993647 -233.90563198 354.03830999 -233.90663147 352.00668335 C-233.91045838 346.64512909 -233.9202877 341.28360171 -233.93133545 335.92205811 C-233.94153133 330.46887575 -233.94612903 325.01568912 -233.95117188 319.5625 C-233.96076153 309.97790561 -233.975244 300.39332833 -233.99327087 290.80874634 C-234.00150519 286.14804628 -233.7296346 281.91831842 -233 277.3125 C-232.7215625 275.54326172 -232.7215625 275.54326172 -232.4375 273.73828125 C-232.293125 272.83464844 -232.14875 271.93101562 -232 271 C-232.66 271 -233.32 271 -234 271 C-233.84007568 270.17757813 -233.68015137 269.35515625 -233.51538086 268.5078125 C-232.94389075 264.61810622 -232.80946928 260.79704727 -232.75390625 256.875 C-232.72252227 255.27595329 -232.69076999 253.67691378 -232.65869141 252.07788086 C-232.63563934 250.83359818 -232.63563934 250.83359818 -232.61212158 249.56417847 C-232.3233343 234.64119342 -231.83187813 219.82622859 -230 205 C-229.88366211 204.03642578 -229.76732422 203.07285156 -229.64746094 202.08007812 C-229.28164426 199.11342906 -228.89636459 196.15021254 -228.5 193.1875 C-228.38156738 192.27798584 -228.26313477 191.36847168 -228.14111328 190.43139648 C-227.83252505 188.27609398 -227.42577181 186.13524564 -227 184 C-226.34 183.67 -225.68 183.34 -225 183 C-224.74991685 181.08759946 -224.50760963 179.17372098 -224.31298828 177.25488281 C-223.71528566 172.94881305 -222.14394207 168.91842746 -220.72851562 164.82421875 C-219.37412044 160.74128983 -218.73880674 157.29964297 -219 153 C-218.01 153.33 -217.02 153.66 -216 154 C-215.87625 153.46375 -215.7525 152.9275 -215.625 152.375 C-213.32971807 143.65292867 -209.22037346 135.91561353 -205 128 C-204.67870117 127.39607422 -204.35740234 126.79214844 -204.02636719 126.16992188 C-198.71224977 116.29217506 -192.49303634 107.12800409 -186 98 C-185.35160156 97.07960938 -184.70320313 96.15921875 -184.03515625 95.2109375 C-182.74844702 93.43030809 -181.38533346 91.70502579 -180 90 C-179.34 90 -178.68 90 -178 90 C-177.731875 89.401875 -177.46375 88.80375 -177.1875 88.1875 C-176.00101202 86.00186425 -174.7416583 84.7416583 -173 83 C-172.70996094 82.37351562 -172.41992188 81.74703125 -172.12109375 81.1015625 C-170.86865711 78.75378929 -169.60566756 77.56560434 -167.5625 75.875 C-164.24989605 73.07980457 -161.04812095 70.20283043 -157.875 67.25 C-152.95579532 62.73208065 -147.79533218 58.62993213 -142.41943359 54.66699219 C-140.89294264 53.51197159 -139.43890621 52.26245639 -138 51 C-138 50.01 -138 49.02 -138 48 C-136.91332031 48.10054687 -136.91332031 48.10054687 -135.8046875 48.203125 C-132.31168474 47.95014987 -130.89304613 46.85477629 -128.125 44.75 C-125.14915678 42.55142926 -122.2427934 40.47171478 -119 38.6875 C-115.99478394 37.17453723 -115.99478394 37.17453723 -114 35 C-112.34545506 34.30379365 -110.67668773 33.64104639 -109 33 C-107.24641122 32.17193971 -105.50062334 31.32721857 -103.76171875 30.46875 C-102.77623047 29.98792969 -101.79074219 29.50710937 -100.77539062 29.01171875 C-98.72624475 28.00853159 -96.67933814 27.0007567 -94.63476562 25.98828125 C-89.1208232 23.30854115 -84.01735844 21.20778521 -78 20 C-78 19.01 -78 18.02 -78 17 C-76.72125 16.896875 -75.4425 16.79375 -74.125 16.6875 C-69.61972935 16.20352148 -65.54720719 15.06339179 -61.26171875 13.62109375 C-59 13 -59 13 -55 13 C-54.67 12.34 -54.34 11.68 -54 11 C-51.67843403 10.59270772 -49.3431213 10.25561323 -47 10 C-47.33 9.34 -47.66 8.68 -48 8 C-47.0090332 8.02501587 -47.0090332 8.02501587 -45.99804688 8.05053711 C-39.0365192 8.1489916 -32.38164248 7.57312372 -25.5 6.5625 C-24.52546875 6.42779297 -23.5509375 6.29308594 -22.546875 6.15429688 C-17.20062437 5.40288894 -17.20062437 5.40288894 -12 4 C-11.67 3.01 -11.34 2.02 -11 1 C-11 1.66 -11 2.32 -11 3 C-9.88625 2.835 -8.7725 2.67 -7.625 2.5 C-4 2 -4 2 -2 2 C-1.34 1.34 -0.68 0.68 0 0 Z M-233 335 C-232 337 -232 337 -232 337 Z M-233 355 C-232 357 -232 357 -232 357 Z M-233 459 C-232 461 -232 461 -232 461 Z M-185 617 C-184.67 617.99 -184.34 618.98 -184 620 C-184 619.01 -184 618.02 -184 617 C-184.33 617 -184.66 617 -185 617 Z " fill="#B73EF0" transform="translate(249,7)"/>
<path d="M0 0 C18.85091365 15.98179537 32.45907435 35.95540145 39.22265625 59.78417969 C39.4136792 60.4508667 39.60470215 61.11755371 39.80151367 61.80444336 C42.9217701 73.68688926 43.64581244 85.8028858 43.57470703 98.0300293 C43.57414079 99.39183036 43.57446362 100.75363203 43.57559204 102.11543274 C43.57615826 105.75911196 43.56452464 109.40265542 43.55044413 113.04630351 C43.53781272 116.87392508 43.53675661 120.70155087 43.53439331 124.52919006 C43.52821458 131.75357737 43.5118534 138.97790306 43.49169433 146.20226341 C43.46922202 154.43702871 43.45831361 162.67179718 43.44830346 170.90658557 C43.42748332 187.8241524 43.39237869 204.74165949 43.34765625 221.65917969 C39.9841017 222.30237716 36.62036308 222.944607 33.2565918 223.58666992 C32.30981316 223.76773033 31.36303452 223.94879074 30.38756561 224.13533783 C-4.25327595 230.74397193 -38.55789153 233.18680081 -73.75610352 233.05029297 C-78.19682435 233.03321562 -82.63700486 233.04338194 -87.07770729 233.06061172 C-116.21219997 233.15635667 -145.08858495 231.72577745 -173.90234375 227.15917969 C-175.25376803 226.95643329 -176.60533284 226.75462159 -177.95703125 226.55371094 C-186.91437403 225.19467317 -195.77535942 223.46080756 -204.65234375 221.65917969 C-204.72273191 203.71634352 -204.77547683 185.77354368 -204.80778027 167.83059883 C-204.82318454 159.49753298 -204.84414928 151.1645534 -204.87866211 142.83154297 C-204.9087634 135.56015677 -204.92796541 128.28883311 -204.93460923 121.01738632 C-204.93848678 117.17476197 -204.94746132 113.33231639 -204.96953392 109.48974991 C-205.17628437 72.04699835 -205.17628437 72.04699835 -199.08984375 54.72167969 C-198.84081299 53.99843506 -198.59178223 53.27519043 -198.33520508 52.5300293 C-193.3911765 38.8588302 -186.46312467 26.3951766 -176.65234375 15.65917969 C-175.96914063 14.83546875 -175.2859375 14.01175781 -174.58203125 13.16308594 C-132.19300555 -36.96858468 -49.85999834 -40.45967951 0 0 Z " fill="#FDF9FE" transform="translate(501.65234375,352.3408203125)"/>
<path d="M0 0 C8.01632712 -0.11717368 16.03228143 -0.20534937 24.04926014 -0.25906086 C27.77412012 -0.28487311 31.49838361 -0.31973134 35.22290039 -0.37719727 C62.28591194 -0.78352701 84.8172251 1.26283854 106 20 C106.61230469 20.51820313 107.22460938 21.03640625 107.85546875 21.5703125 C121.30683798 33.82121629 127.98770961 52.08157077 129.1955719 69.88220215 C129.27686187 72.76039726 129.30346336 75.63238975 129.30078125 78.51171875 C129.30506638 79.56422318 129.3093515 80.6167276 129.31376648 81.7011261 C129.31946588 83.91199022 129.32004281 86.12287308 129.31567383 88.33374023 C129.31252386 91.66228314 129.33599534 94.98992645 129.36132812 98.31835938 C129.43349308 122.43224689 126.16994424 144.47606072 109.1796875 162.9765625 C89.84419306 180.92599999 47.79365239 205 21 205 C20.99761165 204.30537722 20.99522329 203.61075443 20.99276257 202.89508247 C20.93336638 185.91452537 20.85766167 168.93412473 20.76428509 151.953722 C20.71951145 143.74178484 20.68005551 135.52988927 20.65356445 127.31787109 C20.63043379 120.15188096 20.59687116 112.9860245 20.55129844 105.82014072 C20.52756702 102.03346716 20.50870797 98.24692433 20.50238609 94.46017838 C20.46628421 75.31977687 19.81066354 57.09674817 14.3125 38.625 C14.06266357 37.76704834 13.81282715 36.90909668 13.55541992 36.02514648 C10.32230792 25.27718065 6.32609933 14.58492923 1.26171875 4.55859375 C0 2 0 2 0 0 Z " fill="#FCF7FE" transform="translate(563,360)"/>
<path d="M0 0 C1.43444008 0.00749091 2.86889062 0.01317028 4.30334473 0.01715088 C8.01883874 0.03218391 11.73367401 0.07126189 15.44891357 0.1159668 C19.26402889 0.15741202 23.07925412 0.17526528 26.89453125 0.1953125 C34.33623286 0.237787 41.77739801 0.30575363 49.21875 0.390625 C47.95643931 4.22167075 46.61758481 7.95630558 45.046875 11.671875 C40.74962376 21.99981378 36.6680944 32.27533826 33.71875 43.078125 C33.48833008 43.91214844 33.25791016 44.74617188 33.02050781 45.60546875 C29.93895994 57.46546539 28.92135099 69.33627289 28.89990234 81.55615234 C28.8905723 82.90795978 28.88039924 84.25976162 28.86946106 85.61155701 C28.84249294 89.23250157 28.82711197 92.85340802 28.81403303 96.47442579 C28.79825481 100.27674636 28.77151264 104.07899063 28.7460022 107.8812561 C28.69947161 115.05957739 28.66260424 122.23791345 28.62932932 129.41630709 C28.59092459 137.59790209 28.54156341 145.77941997 28.49134517 153.96094966 C28.38840853 170.77078581 28.29902545 187.58066502 28.21875 204.390625 C26.63604536 204.08796086 25.05408547 203.78140077 23.47244263 203.47323608 C22.59140932 203.30294577 21.71037601 203.13265545 20.80264473 202.95720482 C17.13026761 202.15194958 13.70627576 200.92062595 10.2109375 199.5546875 C9.13051178 199.14175949 9.13051178 199.14175949 8.02825928 198.7204895 C5.71235324 197.8297588 3.40253816 196.92463441 1.09375 196.015625 C-0.09628632 195.54993103 -0.09628632 195.54993103 -1.31036377 195.0748291 C-31.04299235 183.40016347 -61.46111065 170.46036735 -75.15625 139.515625 C-80.01723112 125.21503062 -80.22839112 111.00366654 -80.11743164 96.05322266 C-80.09369639 92.63290009 -80.09691068 89.21335375 -80.10351562 85.79296875 C-80.09794108 83.5807246 -80.09083261 81.36848367 -80.08203125 79.15625 C-80.08294266 78.15281555 -80.08385406 77.1493811 -80.08479309 76.11553955 C-79.86904699 54.19445939 -72.38135361 35.84048685 -56.78125 20.390625 C-40.62546993 5.18371609 -21.77127449 -0.34267305 0 0 Z " fill="#FDF9FE" transform="translate(229.78125,359.609375)"/>
<path d="M0 0 C14.30869754 10.76746949 24.41732982 26.101495 27 44 C28.46565494 62.78587285 25.47375234 81.43472083 13.34765625 96.43359375 C1.98917187 109.58309246 -12.78866408 119.57205839 -30.47070312 121.23193359 C-41.51658314 121.8798877 -51.71514057 121.44713467 -62 117 C-63.03511719 116.55269531 -64.07023437 116.10539063 -65.13671875 115.64453125 C-71.77540293 112.53759374 -77.49232227 108.82587623 -83 104 C-83.92232422 103.20142578 -83.92232422 103.20142578 -84.86328125 102.38671875 C-89.98363506 97.62967164 -93.49436421 92.00591469 -97 86 C-97.60521484 84.99646484 -97.60521484 84.99646484 -98.22265625 83.97265625 C-105.7703385 70.39830757 -106.56421702 51.10424409 -102.51098633 36.31640625 C-96.41904284 17.12152251 -84.55993035 4.17973615 -67.21875 -5.5625 C-45.45273351 -16.31747286 -19.77230251 -13.64316682 0 0 Z " fill="#FCF9FE" transform="translate(460,170)"/>
<path d="M0 0 C11.88020561 9.62259644 18.59870402 23.11065366 20.37890625 38.21484375 C20.94818785 53.07125708 16.14715673 67.49894819 6.9375 79.125 C-3.01655738 89.78066495 -15.97528608 96.02299199 -30.5 97.203125 C-46.54145987 97.50390237 -61.22718919 92.4573094 -72.9375 81.28515625 C-84.85155959 68.08491977 -89.11161843 52.71651725 -88.2265625 35.25878906 C-87.25499885 25.572467 -83.00426474 16.56321265 -77 9 C-76.55011719 8.38898438 -76.10023438 7.77796875 -75.63671875 7.1484375 C-57.12715095 -16.52295343 -22.88792653 -15.97716755 0 0 Z " fill="#FCF8FE" transform="translate(266,226)"/>
<path d="M0 0 C10.67321752 9.03989181 17.43794369 21.09205087 19.265625 34.99609375 C20.30125905 51.71903705 17.23225225 65.90179224 6.421875 79.27734375 C-3.32168008 89.65982048 -16.61022745 96.13930966 -30.828125 97.234375 C-47.23044981 97.5917651 -60.74203254 91.98743872 -72.734375 80.99609375 C-84.01452393 69.24871972 -88.23865061 54.6695692 -87.984375 38.77734375 C-86.98899189 23.72217417 -80.21982628 10.4515868 -68.90234375 0.5078125 C-48.57743486 -15.4338041 -20.91654604 -15.32884017 0 0 Z " fill="#FCF8FE" transform="translate(644.734375,226.00390625)"/>
<path d="M0 0 C0.33 0.66 0.66 1.32 1 2 C1.78375 1.814375 2.5675 1.62875 3.375 1.4375 C6 1 6 1 8 2 C8.33 1.34 8.66 0.68 9 0 C9 1.65 9 3.3 9 5 C-105.51 4.67 -220.02 4.34 -338 4 C-338 3.67 -338 3.34 -338 3 C-329.40224472 2.13715595 -320.9075384 1.86303017 -312.27011108 1.89320374 C-310.92474474 1.89420222 -309.579378 1.89474978 -308.23401129 1.89489073 C-304.57085889 1.89652213 -300.90774294 1.90435801 -297.24460196 1.91325247 C-293.28155122 1.92173558 -289.31849613 1.92428957 -285.35543823 1.92750549 C-278.49991589 1.93378307 -271.64440562 1.94350933 -264.78889084 1.95540047 C-254.87495742 1.97241641 -244.96102695 1.98194099 -235.04708214 1.9892792 C-218.95700302 2.00120531 -202.86692862 2.01614971 -186.77685547 2.03442383 C-185.81520692 2.03551395 -184.85355837 2.03660407 -183.86276896 2.03772723 C-170.18941155 2.05336675 -156.51605971 2.07196864 -142.84270771 2.0917251 C-141.87802725 2.09311842 -140.91334679 2.09451173 -139.91943359 2.09594727 C-138.95593051 2.0973408 -137.99242744 2.09873433 -136.99972729 2.10017008 C-120.95542511 2.12317499 -104.91112656 2.13850803 -88.86681044 2.14750665 C-78.97140642 2.15336753 -69.07605247 2.1657627 -59.18066819 2.18647944 C-52.4117215 2.20014948 -45.6427924 2.20667835 -38.87383203 2.20748956 C-34.96470521 2.20819593 -31.0556532 2.21224762 -27.14654541 2.2249527 C-22.91767212 2.2386258 -18.68894655 2.23700314 -14.46005249 2.23377991 C-12.5900683 2.24354161 -12.5900683 2.24354161 -10.68230665 2.25350052 C-9.55710477 2.25013512 -8.43190289 2.24676973 -7.27260399 2.24330235 C-5.80714781 2.24525462 -5.80714781 2.24525462 -4.31208646 2.24724633 C-1.80530348 2.223911 -1.80530348 2.223911 0 0 Z " fill="#722496" transform="translate(592,8)"/>
<path d="M0 0 C0.33 0 0.66 0 1 0 C1.70927125 5.2093756 2.16440067 10.30434051 2.31640625 15.56640625 C2.33723267 16.27101486 2.35805908 16.97562347 2.3795166 17.70158386 C2.44515 19.98845469 2.50428788 22.27542907 2.5625 24.5625 C2.59426834 25.73613098 2.59426834 25.73613098 2.62667847 26.93347168 C3.05693364 42.95696436 3.11183235 58.97184287 3 75 C3.66 75.33 4.32 75.66 5 76 C4.34 76 3.68 76 3 76 C3.00092179 76.93831476 3.00184359 77.87662952 3.00279331 78.84337807 C3.02507929 101.76701561 3.04146654 124.69065174 3.05181217 147.61429787 C3.05694934 158.70038871 3.06394237 169.78647237 3.07543945 180.87255859 C3.08546564 190.5450136 3.09187215 200.21746339 3.09408849 209.88992345 C3.09538224 215.00245458 3.09838213 220.1149708 3.10573006 225.2274971 C3.17868304 278.08684146 3.17868304 278.08684146 0.375 298.75 C0.20750244 299.99861816 0.04000488 301.24723633 -0.13256836 302.53369141 C-2.37808025 318.06294136 -6.26187816 333.38435835 -12 348 C-13.16068727 344.51793819 -12.79518302 343.60714511 -11.70703125 340.1953125 C-11.40821045 339.23012695 -11.10938965 338.26494141 -10.80151367 337.27050781 C-10.3119519 335.71348145 -10.3119519 335.71348145 -9.8125 334.125 C-7.42548334 326.22241591 -5.23989457 318.36120305 -3.6875 310.25 C-3.54094971 309.51023926 -3.39439941 308.77047852 -3.2434082 308.00830078 C0.13241954 289.44419736 0.2814799 270.82908743 0.22705078 252.02636719 C0.22536459 249.26483044 0.22671797 246.50329704 0.22793579 243.74176025 C0.22897572 237.83800164 0.2227936 231.93428782 0.21146011 226.03054047 C0.19508538 217.49511283 0.18998498 208.95970646 0.18748413 200.42426482 C0.18312562 186.57026588 0.16986704 172.71629074 0.15087891 158.86230469 C0.13247204 145.41829547 0.11833918 131.97429275 0.10986328 118.53027344 C0.10907511 117.283617 0.10907511 117.283617 0.10827102 116.01177558 C0.10566061 111.84164836 0.10313328 107.67152109 0.10064721 103.5013938 C0.07997225 69.00091209 0.04479753 34.50045863 0 0 Z " fill="#73249B" transform="translate(816,219)"/>
<path d="M0 0 C0.33 0 0.66 0 1 0 C0.67 87.12 0.34 174.24 0 264 C-0.33 264 -0.66 264 -1 264 C-1.33 259.05 -1.66 254.1 -2 249 C-2.33 249 -2.66 249 -3 249 C-2.99476318 248.26475098 -2.98952637 247.52950195 -2.98413086 246.77197266 C-2.96314084 243.38965739 -2.95027049 240.0073559 -2.9375 236.625 C-2.92912109 235.46871094 -2.92074219 234.31242188 -2.91210938 233.12109375 C-2.89494744 227.04576749 -3.07975009 221.10983446 -3.77075195 215.07324219 C-4.48697999 208.59591689 -3.93406881 202.42172306 -3 196 C-2.96868316 193.63557845 -2.99740835 191.28160932 -3.0625 188.91796875 C-3 187 -3 187 -2 185 C-1.53755748 179.62276143 -1.93189553 175.04100465 -4 170 C-3.67 169.67 -3.34 169.34 -3 169 C-3.165 168.01 -3.33 167.02 -3.5 166 C-3.665 165.01 -3.83 164.02 -4 163 C-3.67 162.67 -3.34 162.34 -3 162 C-2.90478555 159.1854168 -2.87446402 156.39543588 -2.88647461 153.58056641 C-2.88632858 152.69766434 -2.88618256 151.81476227 -2.8860321 150.90510559 C-2.88673179 147.9705667 -2.8945284 145.03609038 -2.90234375 142.1015625 C-2.9042082 140.06993647 -2.90563198 138.03830999 -2.90663147 136.00668335 C-2.91045838 130.64512909 -2.9202877 125.28360171 -2.93133545 119.92205811 C-2.94153133 114.46887575 -2.94612903 109.01568912 -2.95117188 103.5625 C-2.96076153 93.97790561 -2.975244 84.39332833 -2.99327087 74.80874634 C-3.00150519 70.14804628 -2.7296346 65.91831842 -2 61.3125 C-1.814375 60.13300781 -1.62875 58.95351563 -1.4375 57.73828125 C-1.2209375 56.38283203 -1.2209375 56.38283203 -1 55 C-1.66 55 -2.32 55 -3 55 C-2.84080078 54.1855542 -2.68160156 53.3711084 -2.51757812 52.53198242 C-1.92811862 48.5094774 -1.79066358 44.54459685 -1.71875 40.48828125 C-1.70034058 39.67940964 -1.68193115 38.87053802 -1.66296387 38.03715515 C-1.60457037 35.46233967 -1.55166818 32.88745862 -1.5 30.3125 C-1.07204588 9.20476286 -1.07204588 9.20476286 0 0 Z M-2 119 C-1 121 -1 121 -1 121 Z M-2 139 C-1 141 -1 141 -1 141 Z M-2 243 C-1 245 -1 245 -1 245 Z " fill="#7B29AB" transform="translate(18,223)"/>
<path d="M0 0 C0.33 0 0.66 0 1 0 C1.08017377 19.85255222 0.86968744 39.7000459 0.62768555 59.55078125 C0.57208917 64.13192279 0.52210195 68.71310871 0.47328281 73.29432678 C0.43426304 76.86323883 0.39121028 80.43209413 0.34705925 84.00094604 C0.32683155 85.69129723 0.30808899 87.38166692 0.29092598 89.072052 C0.26666528 91.42441074 0.23666763 93.77663266 0.20532227 96.12890625 C0.1995668 96.81049805 0.19381134 97.49208984 0.18788147 98.19433594 C0.11740085 102.87042029 -0.3578428 107.37587283 -1 112 C-1.66 111.67 -2.32 111.34 -3 111 C-3 67.625 -3 67.625 -2 61.3125 C-1.814375 60.13300781 -1.62875 58.95351563 -1.4375 57.73828125 C-1.2209375 56.38283203 -1.2209375 56.38283203 -1 55 C-1.66 55 -2.32 55 -3 55 C-2.84080078 54.1855542 -2.68160156 53.3711084 -2.51757812 52.53198242 C-1.92811862 48.5094774 -1.79066358 44.54459685 -1.71875 40.48828125 C-1.70034058 39.67940964 -1.68193115 38.87053802 -1.66296387 38.03715515 C-1.60457037 35.46233967 -1.55166818 32.88745862 -1.5 30.3125 C-1.07204588 9.20476286 -1.07204588 9.20476286 0 0 Z " fill="#7F28AC" transform="translate(18,223)"/>
<path d="M0 0 C5.27399476 -0.20592604 10.19406866 -0.07087664 15.375 1 C20.45061276 2.03967032 25.20565806 2.09509846 30.37109375 1.875 C33.12730968 2.00605336 34.66206113 2.58507718 37 4 C35.02 4 33.04 4 31 4 C32.60049704 4.39036513 34.20562371 4.76178619 35.8125 5.125 C37.15248047 5.43824219 37.15248047 5.43824219 38.51953125 5.7578125 C41.25246634 6.28880522 41.25246634 6.28880522 44 4 C44.495 5.485 44.495 5.485 45 7 C49.725109 9.41726629 54.71529678 10.40651563 60 10 C60 10.66 60 11.32 60 12 C61.01984985 12.42297363 61.01984985 12.42297363 62.06030273 12.85449219 C65.18651767 14.15183552 68.31201203 15.45090634 71.4375 16.75 C72.50677734 17.1934375 73.57605469 17.636875 74.67773438 18.09375 C77.78868452 19.38760082 80.89525004 20.69134865 84 22 C84.91023926 22.37962891 85.82047852 22.75925781 86.75830078 23.15039062 C87.57153809 23.49779297 88.38477539 23.84519531 89.22265625 24.203125 C90.28818726 24.65413574 90.28818726 24.65413574 91.37524414 25.11425781 C93 26 93 26 94 28 C94.825 28.33 95.65 28.66 96.5 29 C99 30 99 30 100 32 C96.98477251 30.8640859 94.08593618 29.57696673 91.19921875 28.15234375 C61.91649856 13.71826583 32.07351767 6.07913076 0 1 C0 0.67 0 0.34 0 0 Z " fill="#711F94" transform="translate(602,13)"/>
<path d="M0 0 C0.66 0 1.32 0 2 0 C2.05064837 6.49614132 2.0857117 12.99223185 2.10986328 19.48852539 C2.11993006 21.69915673 2.13358448 23.90977472 2.15087891 26.12036133 C2.17509738 29.29511811 2.18647627 32.46969906 2.1953125 35.64453125 C2.20563507 36.63524124 2.21595764 37.62595123 2.22659302 38.64668274 C2.22674408 39.56741074 2.22689514 40.48813873 2.22705078 41.43676758 C2.231492 42.2472908 2.23593323 43.05781403 2.24050903 43.89289856 C2 46 2 46 0 49 C0.00523682 48.26475098 0.01047363 47.52950195 0.01586914 46.77197266 C0.03685916 43.38965739 0.04972951 40.0073559 0.0625 36.625 C0.07087891 35.46871094 0.07925781 34.31242187 0.08789062 33.12109375 C0.10503677 27.05135715 -0.07983868 21.12172551 -0.77075195 15.09082031 C-1.04657492 12.57522088 -1.13330852 10.09244375 -1.125 7.5625 C-1.12757812 6.75941406 -1.13015625 5.95632813 -1.1328125 5.12890625 C-1 3 -1 3 0 0 Z " fill="#B838EC" transform="translate(15,423)"/>
<path d="M0 0 C0.495 0.99 0.495 0.99 1 2 C1.78375 1.814375 2.5675 1.62875 3.375 1.4375 C6 1 6 1 8 2 C8.33 1.34 8.66 0.68 9 0 C9 1.65 9 3.3 9 5 C-1.67468952 5.1132927 -12.33081055 5.00523519 -23 4.625 C-24.04414062 4.59414307 -25.08828125 4.56328613 -26.1640625 4.53149414 C-27.14117188 4.4927417 -28.11828125 4.45398926 -29.125 4.4140625 C-29.99382813 4.3826416 -30.86265625 4.3512207 -31.7578125 4.31884766 C-34 4 -34 4 -37 2 C-35.95021973 2.01047363 -34.90043945 2.02094727 -33.81884766 2.03173828 C-29.93134967 2.06788453 -26.04386659 2.09088078 -22.15625 2.10986328 C-20.47230534 2.11993317 -18.78837821 2.13358988 -17.10449219 2.15087891 C-14.68680499 2.17508426 -12.26934857 2.18647296 -9.8515625 2.1953125 C-8.71867294 2.21079636 -8.71867294 2.21079636 -7.56289673 2.22659302 C-5.7070602 2.22699318 -3.8518072 2.12222716 -2 2 C-1.34 1.34 -0.68 0.68 0 0 Z " fill="#7F20A2" transform="translate(592,8)"/>
<path d="M0 0 C-0.66 0 -1.32 0 -2 0 C-2 0.66 -2 1.32 -2 2 C-7.88400655 2.85695967 -13.55909292 3.12539234 -19.5 3.0625 C-20.32242188 3.05798828 -21.14484375 3.05347656 -21.9921875 3.04882812 C-23.99482396 3.03718489 -25.99742227 3.01925556 -28 3 C-28 2.67 -28 2.34 -28 2 C-26.53240234 1.92652344 -26.53240234 1.92652344 -25.03515625 1.8515625 C-16.35458789 1.40280167 -16.35458789 1.40280167 -7.8125 -0.125 C-4.27001857 -0.93802853 -3.24410605 -1.02142585 0 0 Z " fill="#A61EE8" transform="translate(630,321)"/>
<path d="M0 0 C0.99 0.33 1.98 0.66 3 1 C3 1.99 3 2.98 3 4 C3.66 4 4.32 4 5 4 C5 4.66 5 5.32 5 6 C-0.61 5.34 -6.22 4.68 -12 4 C-11.67 3.01 -11.34 2.02 -11 1 C-11 1.66 -11 2.32 -11 3 C-9.88625 2.835 -8.7725 2.67 -7.625 2.5 C-4 2 -4 2 -2 2 C-1.34 1.34 -0.68 0.68 0 0 Z " fill="#B81BD9" transform="translate(249,7)"/>
<path d="M0 0 C1.77395508 0.42466497 3.54410631 0.8652409 5.3125 1.3125 C6.29863281 1.55613281 7.28476562 1.79976562 8.30078125 2.05078125 C11.00141012 3.00049589 12.20956216 3.81847677 14 6 C12.8553125 5.7525 12.8553125 5.7525 11.6875 5.5 C8.51667103 4.91007833 5.66287329 5.01182901 2.4375 5.125 C-1 5 -1 5 -3 3 C-2.01 2.01 -1.02 1.02 0 0 Z " fill="#8823B2" transform="translate(458,722)"/>
<path d="M0 0 C0.02710123 2.5625718 0.04688771 5.12485365 0.0625 7.6875 C0.07087891 8.40873047 0.07925781 9.12996094 0.08789062 9.87304688 C0.10543632 13.71555382 -0.06475779 17.26639526 -1 21 C-1.99 20.67 -2.98 20.34 -4 20 C-3.690625 19.195625 -3.38125 18.39125 -3.0625 17.5625 C-1.81434483 13.37750913 -1.3662304 9.33693899 -1 5 C-1.66 5 -2.32 5 -3 5 C-3 3.68 -3 2.36 -3 1 C-1 0 -1 0 0 0 Z " fill="#8E1BB7" transform="translate(18,273)"/>
<path d="M0 0 C2.31 0.33 4.62 0.66 7 1 C6 4 6 4 3.125 5.75 C0 7 0 7 -3 6 C-2.34 5.67 -1.68 5.34 -1 5 C-0.34444881 2.47266765 -0.34444881 2.47266765 0 0 Z " fill="#8E2AB8" transform="translate(678,695)"/>
<path d="M0 0 C1.65 0.33 3.3 0.66 5 1 C4.04270084 2.12588014 3.08412105 3.2506715 2.125 4.375 C1.59132813 5.00148438 1.05765625 5.62796875 0.5078125 6.2734375 C-0.61432007 7.55836651 -1.79371975 8.79371975 -3 10 C-5.125 9.625 -5.125 9.625 -7 9 C-6.4946875 8.60167969 -5.989375 8.20335937 -5.46875 7.79296875 C-4.8190625 7.26316406 -4.169375 6.73335937 -3.5 6.1875 C-2.8503125 5.66542969 -2.200625 5.14335938 -1.53125 4.60546875 C0.34509128 3.00795167 0.34509128 3.00795167 0 0 Z " fill="#8429AC" transform="translate(111,55)"/>
<path d="M0 0 C0.66 0.33 1.32 0.66 2 1 C-2.62 5.62 -7.24 10.24 -12 15 C-12.33 14.01 -12.66 13.02 -13 12 C-12.31292969 11.38511719 -11.62585938 10.77023438 -10.91796875 10.13671875 C-10.01691406 9.32847656 -9.11585937 8.52023438 -8.1875 7.6875 C-7.29417969 6.88699219 -6.40085937 6.08648437 -5.48046875 5.26171875 C-3.60073214 3.54775419 -1.77407253 1.82122396 0 0 Z " fill="#621F84" transform="translate(90,75)"/>
<path d="M0 0 C1.9375 0.3125 1.9375 0.3125 4 1 C5 4 5 4 5 7 C5.3062434 8.33981486 5.63451555 9.67511887 6 11 C4.68 11 3.36 11 2 11 C1.855625 9.9275 1.71125 8.855 1.5625 7.75 C1.16250558 5.08337051 0.72408076 2.58600271 0 0 Z " fill="#8A26AF" transform="translate(785,125)"/>
<path d="M0 0 C0.33 1.32 0.66 2.64 1 4 C-1.97 6.475 -1.97 6.475 -5 9 C-4.5206753 4.68607774 -3.2542015 2.83430453 0 0 Z " fill="#9B32BD" transform="translate(76,90)"/>
<path d="M0 0 C0 1.32 0 2.64 0 4 C-2.4375 3.625 -2.4375 3.625 -5 3 C-5.33 2.34 -5.66 1.68 -6 1 C-3 0 -3 0 0 0 Z " fill="#932DBB" transform="translate(478,727)"/>
<path d="M0 0 C0.66 0 1.32 0 2 0 C2 2.64 2 5.28 2 8 C1.34 8 0.68 8 0 8 C-0.79953138 4.71303767 -1.09658936 3.28976808 0 0 Z " fill="#B040E6" transform="translate(15,423)"/>
<path d="M0 0 C2.97 0.495 2.97 0.495 6 1 C6 1.33 6 1.66 6 2 C3.69 2.33 1.38 2.66 -1 3 C-0.67 2.01 -0.34 1.02 0 0 Z " fill="#B11DE1" transform="translate(198,716)"/>
<path d="M0 0 C1.98 0 3.96 0 6 0 C2.25 2 2.25 2 0 2 C0 1.34 0 0.68 0 0 Z " fill="#C707F7" transform="translate(227,722)"/>
<path d="M0 0 C2.97 0.495 2.97 0.495 6 1 C4.125 1.625 4.125 1.625 2 2 C1.34 1.34 0.68 0.68 0 0 Z " fill="#CD2BD3" transform="translate(175,709)"/>
<path d="M0 0 C0.33 0 0.66 0 1 0 C1 2.64 1 5.28 1 8 C0.67 8 0.34 8 0 8 C0 5.36 0 2.72 0 0 Z " fill="#BC42F7" transform="translate(15,249)"/>
<path d="M0 0 C0.33 0 0.66 0 1 0 C1 2.31 1 4.62 1 7 C-0.0625 5.1875 -0.0625 5.1875 -1 3 C-0.67 2.01 -0.34 1.02 0 0 Z " fill="#C031F2" transform="translate(15,241)"/>
<path d="M0 0 C2.31 0 4.62 0 7 0 C7 0.33 7 0.66 7 1 C4.69 1 2.38 1 0 1 C0 0.67 0 0.34 0 0 Z " fill="#D715E9" transform="translate(239,723)"/>
<path d="M0 0 C0 0.99 0 1.98 0 3 C-0.66 3.66 -1.32 4.32 -2 5 C-1.125 1.125 -1.125 1.125 0 0 Z " fill="#9124FF" transform="translate(56,112)"/>
<path d="M0 0 C1.32 1.32 2.64 2.64 4 4 C2.68 3.67 1.36 3.34 0 3 C0 2.01 0 1.02 0 0 Z " fill="#9112EC" transform="translate(666,23)"/>
<path d="M0 0 C0.66 0.33 1.32 0.66 2 1 C1.67 1.66 1.34 2.32 1 3 C0.01 2.67 -0.98 2.34 -2 2 C-1.34 1.34 -0.68 0.68 0 0 Z " fill="#CE0CF2" transform="translate(231,9)"/>
<path d="M0 0 C2.475 0.495 2.475 0.495 5 1 C3.68 1.33 2.36 1.66 1 2 C0.67 1.34 0.34 0.68 0 0 Z " fill="#CD1CCD" transform="translate(519,778)"/>
<path d="M0 0 C0.66 0.33 1.32 0.66 2 1 C2 1.66 2 2.32 2 3 C1.01 2.67 0.02 2.34 -1 2 C-0.67 1.34 -0.34 0.68 0 0 Z " fill="#BF00FF" transform="translate(472,730)"/>
<path d="M0 0 C0.66 1.32 1.32 2.64 2 4 C1.34 4 0.68 4 0 4 C0 2.68 0 1.36 0 0 Z " fill="#BB43F4" transform="translate(54,611)"/>
<path d="M0 0 C0.33 0 0.66 0 1 0 C1 1.98 1 3.96 1 6 C0.67 6 0.34 6 0 6 C0 4.02 0 2.04 0 0 Z " fill="#9F56E1" transform="translate(15,266)"/>
<path d="M0 0 C0.33 0 0.66 0 1 0 C1 1.98 1 3.96 1 6 C0.67 6 0.34 6 0 6 C0 4.02 0 2.04 0 0 Z " fill="#9C59EB" transform="translate(15,258)"/>
<path d="M0 0 C1.98 0 3.96 0 6 0 C6 0.33 6 0.66 6 1 C4.02 1 2.04 1 0 1 C0 0.67 0 0.34 0 0 Z " fill="#CA16E8" transform="translate(612,12)"/>
<path d="M0 0 C0.66 0.33 1.32 0.66 2 1 C0.68 1.33 -0.64 1.66 -2 2 C-1.34 1.34 -0.68 0.68 0 0 Z " fill="#CB00FF" transform="translate(448,723)"/>
<path d="M0 0 C1.65 0 3.3 0 5 0 C5 0.33 5 0.66 5 1 C3.35 1 1.7 1 0 1 C0 0.67 0 0.34 0 0 Z " fill="#EE11EE" transform="translate(233,723)"/>
<path d="M0 0 C0.33 0 0.66 0 1 0 C1 1.65 1 3.3 1 5 C0.67 5 0.34 5 0 5 C0 3.35 0 1.7 0 0 Z " fill="#A558F2" transform="translate(15,402)"/>
<path d="M0 0 C0.33 0 0.66 0 1 0 C1 1.65 1 3.3 1 5 C0.67 5 0.34 5 0 5 C0 3.35 0 1.7 0 0 Z " fill="#C737F2" transform="translate(15,282)"/>
<path d="M0 0 C0.33 0 0.66 0 1 0 C1 1.65 1 3.3 1 5 C0.67 5 0.34 5 0 5 C0 3.35 0 1.7 0 0 Z " fill="#E500FF" transform="translate(819,236)"/>
<path d="M0 0 C0.33 1.32 0.66 2.64 1 4 C0.34 3.67 -0.32 3.34 -1 3 C-0.67 2.01 -0.34 1.02 0 0 Z " fill="#CB32E5" transform="translate(17,212)"/>
<path d="M0 0 C0.66 0 1.32 0 2 0 C2 0.66 2 1.32 2 2 C1.01 1.67 0.02 1.34 -1 1 C-0.67 0.67 -0.34 0.34 0 0 Z " fill="#941DF2" transform="translate(223,11)"/>
<path d="M0 0 C1.98 0.99 1.98 0.99 4 2 C2.68 2 1.36 2 0 2 C0 1.34 0 0.68 0 0 Z " fill="#E500FF" transform="translate(584,8)"/>
<path d="M0 0 C4 1 4 1 4 1 Z " fill="#D42AD4" transform="translate(204,718)"/>
<path d="M0 0 C0.99 0.33 1.98 0.66 3 1 C2.01 1 1.02 1 0 1 C0 0.67 0 0.34 0 0 Z " fill="#9022DD" transform="translate(157,701)"/>
<path d="M0 0 C0.99 0.33 1.98 0.66 3 1 C2.01 1 1.02 1 0 1 C0 0.67 0 0.34 0 0 Z " fill="#9925D9" transform="translate(763,637)"/>
<path d="M0 0 C4 1 4 1 4 1 Z " fill="#C915E9" transform="translate(62,630)"/>
<path d="M0 0 C0.99 0.495 0.99 0.495 2 1 C1.67 1.66 1.34 2.32 1 3 C0.67 2.01 0.34 1.02 0 0 Z " fill="#C915E9" transform="translate(46,599)"/>
<path d="M0 0 C0.66 0 1.32 0 2 0 C1.67 0.99 1.34 1.98 1 3 C0.67 2.01 0.34 1.02 0 0 Z " fill="#9F5FFF" transform="translate(17,518)"/>
<path d="M0 0 C1 4 1 4 1 4 Z " fill="#C915E9" transform="translate(818,507)"/>
<path d="M0 0 C1 4 1 4 1 4 Z " fill="#C935FF" transform="translate(15,481)"/>
<path d="M0 0 C1 4 1 4 1 4 Z " fill="#B44AFF" transform="translate(15,473)"/>
<path d="M0 0 C0 3 0 3 0 3 Z " fill="#BF1FFF" transform="translate(797,141)"/>
<path d="M0 0 C0.66 0.33 1.32 0.66 2 1 C1.01 1 0.02 1 -1 1 C-0.67 0.67 -0.34 0.34 0 0 Z " fill="#D022DD" transform="translate(79,83)"/>
<path d="M0 0 C1 4 1 4 1 4 Z " fill="#9F00FF" transform="translate(754,79)"/>
<path d="M0 0 C0 3 0 3 0 3 Z " fill="#C915E9" transform="translate(737,64)"/>
<path d="M0 0 C0 3 0 3 0 3 Z " fill="#C915FF" transform="translate(725,55)"/>
<path d="M0 0 C0.66 0.66 1.32 1.32 2 2 C1.01 1.67 0.02 1.34 -1 1 C-0.67 0.67 -0.34 0.34 0 0 Z " fill="#C935E9" transform="translate(199,15)"/>
<path d="M0 0 C3 1 3 1 3 1 Z " fill="#E21CE2" transform="translate(527,780)"/>
<path d="M0 0 C0.66 0.66 1.32 1.32 2 2 C1.34 2 0.68 2 0 2 C0 1.34 0 0.68 0 0 Z " fill="#8D1CE2" transform="translate(511,772)"/>
<path d="" fill="#B831CD" transform="translate(0,0)"/>
<path d="M0 0 C0.99 0.495 0.99 0.495 2 1 C1.01 1.495 1.01 1.495 0 2 C0 1.34 0 0.68 0 0 Z " fill="#8D1CE2" transform="translate(584,747)"/>
<path d="M0 0 C3 1 3 1 3 1 Z " fill="#E21CE2" transform="translate(609,731)"/>
<path d="M0 0 C0.66 0.66 1.32 1.32 2 2 C1.34 2 0.68 2 0 2 C0 1.34 0 0.68 0 0 Z " fill="#FF00FF" transform="translate(255,723)"/>
<path d="M0 0 C3 1 3 1 3 1 Z " fill="#D400FF" transform="translate(311,723)"/>
<path d="M0 0 C0.99 0.495 0.99 0.495 2 1 C1.01 1.495 1.01 1.495 0 2 C0 1.34 0 0.68 0 0 Z " fill="#B81CE2" transform="translate(150,699)"/>
<path d="" fill="#962DD1" transform="translate(0,0)"/>
<path d="M0 0 C0.66 0.66 1.32 1.32 2 2 C1.34 2 0.68 2 0 2 C0 1.34 0 0.68 0 0 Z " fill="#FF00FF" transform="translate(113,674)"/>
<path d="M0 0 C0.66 0.66 1.32 1.32 2 2 C1.34 2 0.68 2 0 2 C0 1.34 0 0.68 0 0 Z " fill="#A900FF" transform="translate(812,542)"/>
<path d="" fill="#D400FF" transform="translate(0,0)"/>
<path d="" fill="#B846FF" transform="translate(0,0)"/>
<path d="" fill="#D42AFF" transform="translate(0,0)"/>
<path d="" fill="#D400FF" transform="translate(0,0)"/>
<path d="" fill="#D42AFF" transform="translate(0,0)"/>
<path d="M0 0 C0.66 0 1.32 0 2 0 C1.67 0.66 1.34 1.32 1 2 C0.67 1.34 0.34 0.68 0 0 Z " fill="#E21CE2" transform="translate(30,158)"/>
<path d="M0 0 C0.66 0 1.32 0 2 0 C1.67 0.66 1.34 1.32 1 2 C0.67 1.34 0.34 0.68 0 0 Z " fill="#A900FF" transform="translate(40,136)"/>
<path d="M0 0 C0.66 0.66 1.32 1.32 2 2 C1.34 2 0.68 2 0 2 C0 1.34 0 0.68 0 0 Z " fill="#A92AFF" transform="translate(772,102)"/>
<path d="M0 0 C0.33 0.66 0.66 1.32 1 2 C0.34 1.67 -0.32 1.34 -1 1 C-0.67 0.67 -0.34 0.34 0 0 Z " fill="#D400FF" transform="translate(764,87)"/>
<path d="M0 0 C0.33 0.66 0.66 1.32 1 2 C0.34 1.67 -0.32 1.34 -1 1 C-0.67 0.67 -0.34 0.34 0 0 Z " fill="#D400FF" transform="translate(92,71)"/>
<path d="M0 0 C0.66 0 1.32 0 2 0 C1.67 0.66 1.34 1.32 1 2 C0.67 1.34 0.34 0.68 0 0 Z " fill="#CD31CD" transform="translate(697,39)"/>
<path d="M0 0 C3 1 3 1 3 1 Z " fill="#FF00FF" transform="translate(689,35)"/>
<path d="M0 0 C0.66 0.66 1.32 1.32 2 2 C1.34 2 0.68 2 0 2 C0 1.34 0 0.68 0 0 Z " fill="#FF00FF" transform="translate(686,33)"/>
<path d="M0 0 C3 1 3 1 3 1 Z " fill="#B211EE" transform="translate(166,26)"/>
<path d="M0 0 C0.99 0.495 0.99 0.495 2 1 C1.01 1.495 1.01 1.495 0 2 C0 1.34 0 0.68 0 0 Z " fill="#FF00FF" transform="translate(668,23)"/>
<path d="M0 0 C2 1 2 1 2 1 Z " fill="#FF00FF" transform="translate(535,779)"/>
<path d="M0 0 C2 1 2 1 2 1 Z " fill="#AA3FBF" transform="translate(604,734)"/>
<path d="" fill="#D42AFF" transform="translate(0,0)"/>
<path d="M0 0 C2 1 2 1 2 1 Z " fill="#CC19E5" transform="translate(621,725)"/>
<path d="M0 0 C2 1 2 1 2 1 Z " fill="#7F00FF" transform="translate(453,724)"/>
<path d="" fill="#BF00FF" transform="translate(0,0)"/>
<path d="M0 0 C2 1 2 1 2 1 Z " fill="#A144BB" transform="translate(625,723)"/>
<path d="M0 0 C2 1 2 1 2 1 Z " fill="#BF00FF" transform="translate(319,723)"/>
<path d="M0 0 C2 1 2 1 2 1 Z " fill="#FF00FF" transform="translate(293,723)"/>
<path d="M0 0 C2 1 2 1 2 1 Z " fill="#FF00FF" transform="translate(288,723)"/>
<path d="M0 0 C2 1 2 1 2 1 Z " fill="#BF00FF" transform="translate(221,721)"/>
<path d="M0 0 C2 1 2 1 2 1 Z " fill="#BF00FF" transform="translate(647,715)"/>
<path d="" fill="#BF1FDF" transform="translate(0,0)"/>
<path d="M0 0 C2 1 2 1 2 1 Z " fill="#D42AD4" transform="translate(173,708)"/>
<path d="M0 0 C2 1 2 1 2 1 Z " fill="#942AD4" transform="translate(171,707)"/>
<path d="" fill="#BF00FF" transform="translate(0,0)"/>
<path d="M0 0 C2 1 2 1 2 1 Z " fill="#7F00FF" transform="translate(696,692)"/>
<path d="" fill="#9F1FDF" transform="translate(0,0)"/>
<path d="M0 0 C2 1 2 1 2 1 Z " fill="#9A24EC" transform="translate(104,668)"/>
<path d="" fill="#AA55AA" transform="translate(0,0)"/>
<path d="" fill="#BF00FF" transform="translate(0,0)"/>
<path d="" fill="#BF3FFF" transform="translate(0,0)"/>
<path d="" fill="#AC39C5" transform="translate(0,0)"/>
<path d="" fill="#FF00FF" transform="translate(0,0)"/>
<path d="" fill="#9F1FDF" transform="translate(0,0)"/>
<path d="" fill="#FF00FF" transform="translate(0,0)"/>
<path d="" fill="#7F7FFF" transform="translate(0,0)"/>
<path d="" fill="#FF00FF" transform="translate(0,0)"/>
<path d="" fill="#FF00FF" transform="translate(0,0)"/>
<path d="" fill="#FF00FF" transform="translate(0,0)"/>
<path d="" fill="#D42AD4" transform="translate(0,0)"/>
<path d="" fill="#FF00FF" transform="translate(0,0)"/>
<path d="" fill="#FF00FF" transform="translate(0,0)"/>
<path d="" fill="#FF00FF" transform="translate(0,0)"/>
<path d="" fill="#DF1FDF" transform="translate(0,0)"/>
<path d="" fill="#D42AD4" transform="translate(0,0)"/>
<path d="" fill="#D42AFF" transform="translate(0,0)"/>
<path d="" fill="#FF00FF" transform="translate(0,0)"/>
<path d="" fill="#AC39C5" transform="translate(0,0)"/>
<path d="" fill="#FF00FF" transform="translate(0,0)"/>
<path d="M0 0 C2 1 2 1 2 1 Z " fill="#BF00FF" transform="translate(786,123)"/>
<path d="" fill="#FF00FF" transform="translate(0,0)"/>
<path d="" fill="#BF00FF" transform="translate(0,0)"/>
<path d="M0 0 C2 1 2 1 2 1 Z " fill="#BF00FF" transform="translate(760,88)"/>
<path d="M0 0 C2 1 2 1 2 1 Z " fill="#7F00FF" transform="translate(743,72)"/>
<path d="M0 0 C2 1 2 1 2 1 Z " fill="#BF00FF" transform="translate(740,63)"/>
<path d="M0 0 C2 1 2 1 2 1 Z " fill="#BF00FF" transform="translate(106,59)"/>
<path d="M0 0 C2 1 2 1 2 1 Z " fill="#BF00FF" transform="translate(138,39)"/>
<path d="M0 0 C2 1 2 1 2 1 Z " fill="#FF00FF" transform="translate(146,35)"/>
<path d="M0 0 C2 1 2 1 2 1 Z " fill="#BF00FF" transform="translate(150,33)"/>
<path d="M0 0 C2 1 2 1 2 1 Z " fill="#9F1FDF" transform="translate(154,31)"/>
<path d="M0 0 C2 1 2 1 2 1 Z " fill="#BF00FF" transform="translate(670,27)"/>
<path d="" fill="#AA55AA" transform="translate(0,0)"/>
<path d="M0 0 C2 1 2 1 2 1 Z " fill="#FF00FF" transform="translate(602,10)"/>
<path d="M0 0 C2 1 2 1 2 1 Z " fill="#BF00FF" transform="translate(602,7)"/>
<path d="" fill="#FF00FF" transform="translate(0,0)"/>
<path d="" fill="#FF00FF" transform="translate(0,0)"/>
<path d="" fill="#AA55AA" transform="translate(0,0)"/>
<path d="" fill="#FF00FF" transform="translate(0,0)"/>
<path d="" fill="#FF00FF" transform="translate(0,0)"/>
<path d="" fill="#7F00FF" transform="translate(0,0)"/>
<path d="" fill="#7F00FF" transform="translate(0,0)"/>
<path d="" fill="#FF00FF" transform="translate(0,0)"/>
<path d="" fill="#FF00FF" transform="translate(0,0)"/>
<path d="" fill="#FF00FF" transform="translate(0,0)"/>
<path d="" fill="#7F00FF" transform="translate(0,0)"/>
<path d="" fill="#FF00FF" transform="translate(0,0)"/>
<path d="" fill="#7F3FBF" transform="translate(0,0)"/>
<path d="" fill="#AA55AA" transform="translate(0,0)"/>
<path d="" fill="#BF3FBF" transform="translate(0,0)"/>
<path d="" fill="#7F00FF" transform="translate(0,0)"/>
<path d="" fill="#AA55AA" transform="translate(0,0)"/>
<path d="" fill="#BF3FBF" transform="translate(0,0)"/>
<path d="" fill="#FF00FF" transform="translate(0,0)"/>
<path d="" fill="#FF00FF" transform="translate(0,0)"/>
<path d="" fill="#7F00FF" transform="translate(0,0)"/>
<path d="" fill="#7F00FF" transform="translate(0,0)"/>
<path d="" fill="#FF00FF" transform="translate(0,0)"/>
<path d="" fill="#FF00FF" transform="translate(0,0)"/>
<path d="" fill="#AA55AA" transform="translate(0,0)"/>
<path d="" fill="#7F00FF" transform="translate(0,0)"/>
<path d="" fill="#FF00FF" transform="translate(0,0)"/>
<path d="" fill="#AA55FF" transform="translate(0,0)"/>
<path d="" fill="#AA55FF" transform="translate(0,0)"/>
<path d="" fill="#FF00FF" transform="translate(0,0)"/>
<path d="" fill="#FF00FF" transform="translate(0,0)"/>
<path d="" fill="#FF00FF" transform="translate(0,0)"/>
<path d="" fill="#FF00FF" transform="translate(0,0)"/>
<path d="" fill="#BF3FBF" transform="translate(0,0)"/>
<path d="" fill="#FF00FF" transform="translate(0,0)"/>
<path d="" fill="#7F3FBF" transform="translate(0,0)"/>
<path d="" fill="#7F00FF" transform="translate(0,0)"/>
<path d="" fill="#7F00FF" transform="translate(0,0)"/>
<path d="" fill="#7F00FF" transform="translate(0,0)"/>
<path d="" fill="#7F00FF" transform="translate(0,0)"/>
<path d="" fill="#7F00FF" transform="translate(0,0)"/>
<path d="" fill="#7F00FF" transform="translate(0,0)"/>
<path d="" fill="#7F00FF" transform="translate(0,0)"/>
<path d="" fill="#FF00FF" transform="translate(0,0)"/>
<path d="" fill="#FF00FF" transform="translate(0,0)"/>
<path d="" fill="#FF00FF" transform="translate(0,0)"/>
<path d="" fill="#FF00FF" transform="translate(0,0)"/>
<path d="" fill="#FF00FF" transform="translate(0,0)"/>
<path d="" fill="#FF00FF" transform="translate(0,0)"/>
<path d="" fill="#FF00FF" transform="translate(0,0)"/>
<path d="" fill="#FF00FF" transform="translate(0,0)"/>
<path d="" fill="#FF00FF" transform="translate(0,0)"/>
<path d="" fill="#FF00FF" transform="translate(0,0)"/>
<path d="" fill="#FF00FF" transform="translate(0,0)"/>
<path d="" fill="#FF00FF" transform="translate(0,0)"/>
<path d="" fill="#FF00FF" transform="translate(0,0)"/>
<path d="" fill="#7F00FF" transform="translate(0,0)"/>
<path d="" fill="#FF00FF" transform="translate(0,0)"/>
<path d="" fill="#FF00FF" transform="translate(0,0)"/>
<path d="" fill="#FF00FF" transform="translate(0,0)"/>
<path d="" fill="#FF00FF" transform="translate(0,0)"/>
<path d="" fill="#7F00FF" transform="translate(0,0)"/>
<path d="" fill="#7F00FF" transform="translate(0,0)"/>
<path d="" fill="#FF00FF" transform="translate(0,0)"/>
<path d="" fill="#FF00FF" transform="translate(0,0)"/>
<path d="" fill="#7F00FF" transform="translate(0,0)"/>
<path d="" fill="#FF00FF" transform="translate(0,0)"/>
<path d="" fill="#FF00FF" transform="translate(0,0)"/>
<path d="" fill="#FF00FF" transform="translate(0,0)"/>
<path d="" fill="#FF00FF" transform="translate(0,0)"/>
<path d="" fill="#FF00FF" transform="translate(0,0)"/>
<path d="" fill="#FF00FF" transform="translate(0,0)"/>
<path d="" fill="#FF00FF" transform="translate(0,0)"/>
<path d="" fill="#FF00FF" transform="translate(0,0)"/>
<path d="" fill="#FF00FF" transform="translate(0,0)"/>
<path d="" fill="#FF00FF" transform="translate(0,0)"/>
<path d="" fill="#FF00FF" transform="translate(0,0)"/>
<path d="" fill="#FF00FF" transform="translate(0,0)"/>
<path d="" fill="#AA55AA" transform="translate(0,0)"/>
<path d="" fill="#FF00FF" transform="translate(0,0)"/>
<path d="" fill="#FF00FF" transform="translate(0,0)"/>
<path d="" fill="#7F7FFF" transform="translate(0,0)"/>
<path d="" fill="#7F00FF" transform="translate(0,0)"/>
<path d="" fill="#FF00FF" transform="translate(0,0)"/>
<path d="" fill="#FF00FF" transform="translate(0,0)"/>
<path d="" fill="#FF00FF" transform="translate(0,0)"/>
<path d="" fill="#7F00FF" transform="translate(0,0)"/>
<path d="" fill="#7F00FF" transform="translate(0,0)"/>
<path d="" fill="#FF00FF" transform="translate(0,0)"/>
<path d="" fill="#FF00FF" transform="translate(0,0)"/>
<path d="" fill="#FF00FF" transform="translate(0,0)"/>
<path d="" fill="#7F00FF" transform="translate(0,0)"/>
<path d="" fill="#FF00FF" transform="translate(0,0)"/>
<path d="" fill="#FF00FF" transform="translate(0,0)"/>
<path d="" fill="#7F00FF" transform="translate(0,0)"/>
<path d="" fill="#FF00FF" transform="translate(0,0)"/>
<path d="" fill="#AA55AA" transform="translate(0,0)"/>
<path d="" fill="#7F00FF" transform="translate(0,0)"/>
<path d="" fill="#7F00FF" transform="translate(0,0)"/>
<path d="" fill="#FF00FF" transform="translate(0,0)"/>
<path d="" fill="#FF00FF" transform="translate(0,0)"/>
<path d="" fill="#BF3FBF" transform="translate(0,0)"/>
<path d="" fill="#BF3FBF" transform="translate(0,0)"/>
<path d="" fill="#FF00FF" transform="translate(0,0)"/>
<path d="" fill="#FF00FF" transform="translate(0,0)"/>
<path d="" fill="#FF00FF" transform="translate(0,0)"/>
<path d="" fill="#FF00FF" transform="translate(0,0)"/>
<path d="" fill="#FF00FF" transform="translate(0,0)"/>
<path d="" fill="#7F3FBF" transform="translate(0,0)"/>
<path d="" fill="#FF00FF" transform="translate(0,0)"/>
<path d="" fill="#FF00FF" transform="translate(0,0)"/>
<path d="" fill="#9F3FBF" transform="translate(0,0)"/>
<path d="" fill="#FF00FF" transform="translate(0,0)"/>
<path d="" fill="#FF00FF" transform="translate(0,0)"/>
<path d="" fill="#FF00FF" transform="translate(0,0)"/>
<path d="" fill="#7F00FF" transform="translate(0,0)"/>
<path d="" fill="#A938C6" transform="translate(0,0)"/>
<path d="" fill="#AA55FF" transform="translate(0,0)"/>
<path d="" fill="#FF00FF" transform="translate(0,0)"/>
<path d="" fill="#7F00FF" transform="translate(0,0)"/>
<path d="" fill="#FF00FF" transform="translate(0,0)"/>
<path d="" fill="#FF00FF" transform="translate(0,0)"/>
<path d="" fill="#BF3FBF" transform="translate(0,0)"/>
<path d="" fill="#BF3FBF" transform="translate(0,0)"/>
<path d="" fill="#7F00FF" transform="translate(0,0)"/>
<path d="" fill="#9933CC" transform="translate(0,0)"/>
<path d="" fill="#FF00FF" transform="translate(0,0)"/>
<path d="" fill="#AA55AA" transform="translate(0,0)"/>
<path d="" fill="#9933CC" transform="translate(0,0)"/>
<path d="" fill="#AA55AA" transform="translate(0,0)"/>
<path d="" fill="#AA55AA" transform="translate(0,0)"/>
<path d="" fill="#FF00FF" transform="translate(0,0)"/>
<path d="" fill="#FF00FF" transform="translate(0,0)"/>
<path d="" fill="#FF00FF" transform="translate(0,0)"/>
<path d="" fill="#FF00FF" transform="translate(0,0)"/>
<path d="" fill="#AA2AD4" transform="translate(0,0)"/>
<path d="" fill="#7F00FF" transform="translate(0,0)"/>
<path d="" fill="#FF00FF" transform="translate(0,0)"/>
<path d="" fill="#FF00FF" transform="translate(0,0)"/>
<path d="" fill="#FF00FF" transform="translate(0,0)"/>
<path d="" fill="#9F3FBF" transform="translate(0,0)"/>
<path d="" fill="#AA55AA" transform="translate(0,0)"/>
<path d="" fill="#7F00FF" transform="translate(0,0)"/>
<path d="" fill="#AA55AA" transform="translate(0,0)"/>
<path d="" fill="#FF00FF" transform="translate(0,0)"/>
<path d="" fill="#7F7FFF" transform="translate(0,0)"/>
<path d="" fill="#AA55AA" transform="translate(0,0)"/>
<path d="" fill="#7F00FF" transform="translate(0,0)"/>
<path d="" fill="#7F00FF" transform="translate(0,0)"/>
<path d="" fill="#FF00FF" transform="translate(0,0)"/>
<path d="" fill="#7F00FF" transform="translate(0,0)"/>
<path d="" fill="#FF00FF" transform="translate(0,0)"/>
<path d="" fill="#7F00FF" transform="translate(0,0)"/>
<path d="" fill="#FF00FF" transform="translate(0,0)"/>
<path d="" fill="#FF00FF" transform="translate(0,0)"/>
<path d="" fill="#FF00FF" transform="translate(0,0)"/>
<path d="" fill="#AA55AA" transform="translate(0,0)"/>
<path d="" fill="#9933CC" transform="translate(0,0)"/>
<path d="" fill="#FF00FF" transform="translate(0,0)"/>
<path d="" fill="#7F7FFF" transform="translate(0,0)"/>
<path d="" fill="#FF00FF" transform="translate(0,0)"/>
<path d="" fill="#FF00FF" transform="translate(0,0)"/>
<path d="" fill="#FF00FF" transform="translate(0,0)"/>
<path d="" fill="#AA55AA" transform="translate(0,0)"/>
<path d="" fill="#FF00FF" transform="translate(0,0)"/>
<path d="" fill="#FF00FF" transform="translate(0,0)"/>
<path d="" fill="#FF00FF" transform="translate(0,0)"/>
<path d="" fill="#AA55AA" transform="translate(0,0)"/>
<path d="" fill="#7F00FF" transform="translate(0,0)"/>
<path d="" fill="#7F7FFF" transform="translate(0,0)"/>
<path d="" fill="#FF00FF" transform="translate(0,0)"/>
<path d="" fill="#FF00FF" transform="translate(0,0)"/>
<path d="" fill="#FF00FF" transform="translate(0,0)"/>
<path d="" fill="#7F00FF" transform="translate(0,0)"/>
<path d="" fill="#FF00FF" transform="translate(0,0)"/>
<path d="" fill="#AA55FF" transform="translate(0,0)"/>
<path d="" fill="#FF00FF" transform="translate(0,0)"/>
<path d="" fill="#7F00FF" transform="translate(0,0)"/>
<path d="" fill="#7F7FFF" transform="translate(0,0)"/>
<path d="" fill="#FF00FF" transform="translate(0,0)"/>
<path d="" fill="#FF00FF" transform="translate(0,0)"/>
<path d="" fill="#FF00FF" transform="translate(0,0)"/>
<path d="" fill="#FF00FF" transform="translate(0,0)"/>
<path d="" fill="#FF00FF" transform="translate(0,0)"/>
<path d="" fill="#FF00FF" transform="translate(0,0)"/>
<path d="" fill="#7F00FF" transform="translate(0,0)"/>
<path d="" fill="#FF00FF" transform="translate(0,0)"/>
<path d="" fill="#FF00FF" transform="translate(0,0)"/>
<path d="" fill="#FF00FF" transform="translate(0,0)"/>
<path d="" fill="#FF00FF" transform="translate(0,0)"/>
<path d="" fill="#FF00FF" transform="translate(0,0)"/>
<path d="" fill="#FF00FF" transform="translate(0,0)"/>
<path d="" fill="#7F00FF" transform="translate(0,0)"/>
<path d="" fill="#FF00FF" transform="translate(0,0)"/>
<path d="" fill="#7F7FFF" transform="translate(0,0)"/>
<path d="" fill="#7F00FF" transform="translate(0,0)"/>
<path d="" fill="#7F00FF" transform="translate(0,0)"/>
<path d="" fill="#FF00FF" transform="translate(0,0)"/>
<path d="" fill="#7F00FF" transform="translate(0,0)"/>
<path d="" fill="#FF00FF" transform="translate(0,0)"/>
<path d="" fill="#7F00FF" transform="translate(0,0)"/>
<path d="" fill="#FF00FF" transform="translate(0,0)"/>
<path d="" fill="#FF00FF" transform="translate(0,0)"/>
<path d="" fill="#FF00FF" transform="translate(0,0)"/>
<path d="" fill="#FF00FF" transform="translate(0,0)"/>
<path d="" fill="#FF00FF" transform="translate(0,0)"/>
<path d="" fill="#FF00FF" transform="translate(0,0)"/>
<path d="" fill="#FF00FF" transform="translate(0,0)"/>
<path d="" fill="#FF00FF" transform="translate(0,0)"/>
<path d="" fill="#7F00FF" transform="translate(0,0)"/>
<path d="" fill="#FF00FF" transform="translate(0,0)"/>
<path d="" fill="#FF00FF" transform="translate(0,0)"/>
<path d="" fill="#FF00FF" transform="translate(0,0)"/>
<path d="" fill="#7F00FF" transform="translate(0,0)"/>
<path d="" fill="#FF00FF" transform="translate(0,0)"/>
<path d="" fill="#BF3FBF" transform="translate(0,0)"/>
<path d="" fill="#FF00FF" transform="translate(0,0)"/>
<path d="" fill="#FF00FF" transform="translate(0,0)"/>
<path d="" fill="#FF00FF" transform="translate(0,0)"/>
<path d="" fill="#FF00FF" transform="translate(0,0)"/>
<path d="" fill="#FF00FF" transform="translate(0,0)"/>
<path d="" fill="#FF00FF" transform="translate(0,0)"/>
<path d="" fill="#FF00FF" transform="translate(0,0)"/>
<path d="" fill="#7F00FF" transform="translate(0,0)"/>
<path d="" fill="#7F00FF" transform="translate(0,0)"/>
<path d="" fill="#FF00FF" transform="translate(0,0)"/>
<path d="" fill="#AA55AA" transform="translate(0,0)"/>
<path d="" fill="#7F00FF" transform="translate(0,0)"/>
<path d="" fill="#7F7FFF" transform="translate(0,0)"/>
<path d="" fill="#FF00FF" transform="translate(0,0)"/>
<path d="" fill="#FF00FF" transform="translate(0,0)"/>
<path d="" fill="#AA55AA" transform="translate(0,0)"/>
<path d="" fill="#7F00FF" transform="translate(0,0)"/>
<path d="" fill="#7F00FF" transform="translate(0,0)"/>
<path d="" fill="#FF00FF" transform="translate(0,0)"/>
<path d="" fill="#FF00FF" transform="translate(0,0)"/>
<path d="" fill="#BF3FBF" transform="translate(0,0)"/>
<path d="" fill="#FF00FF" transform="translate(0,0)"/>
<path d="" fill="#AA55AA" transform="translate(0,0)"/>
<path d="" fill="#FF00FF" transform="translate(0,0)"/>
<path d="" fill="#7F00FF" transform="translate(0,0)"/>
<path d="" fill="#FF00FF" transform="translate(0,0)"/>
<path d="" fill="#FF00FF" transform="translate(0,0)"/>
<path d="" fill="#FF00FF" transform="translate(0,0)"/>
<path d="" fill="#FF00FF" transform="translate(0,0)"/>
<path d="" fill="#FF00FF" transform="translate(0,0)"/>
<path d="" fill="#7F00FF" transform="translate(0,0)"/>
<path d="" fill="#FF00FF" transform="translate(0,0)"/>
<path d="" fill="#FF00FF" transform="translate(0,0)"/>
<path d="" fill="#FF00FF" transform="translate(0,0)"/>
<path d="" fill="#AA55AA" transform="translate(0,0)"/>
<path d="" fill="#7F00FF" transform="translate(0,0)"/>
<path d="" fill="#9933CC" transform="translate(0,0)"/>
<path d="" fill="#FF00FF" transform="translate(0,0)"/>
<path d="" fill="#7F00FF" transform="translate(0,0)"/>
<path d="" fill="#FF00FF" transform="translate(0,0)"/>
<path d="" fill="#7F00FF" transform="translate(0,0)"/>
<path d="" fill="#7F3FBF" transform="translate(0,0)"/>
<path d="" fill="#9933CC" transform="translate(0,0)"/>
<path d="" fill="#FF00FF" transform="translate(0,0)"/>
<path d="" fill="#FF00FF" transform="translate(0,0)"/>
<path d="" fill="#7F00FF" transform="translate(0,0)"/>
<path d="" fill="#FF00FF" transform="translate(0,0)"/>
<path d="" fill="#FF00FF" transform="translate(0,0)"/>
<path d="" fill="#7F00FF" transform="translate(0,0)"/>
<path d="" fill="#FF00FF" transform="translate(0,0)"/>
<path d="" fill="#7F00FF" transform="translate(0,0)"/>
<path d="" fill="#AA55FF" transform="translate(0,0)"/>
<path d="" fill="#AA55AA" transform="translate(0,0)"/>
<path d="" fill="#FF00FF" transform="translate(0,0)"/>
<path d="" fill="#FF00FF" transform="translate(0,0)"/>
<path d="" fill="#AA55AA" transform="translate(0,0)"/>
<path d="" fill="#BF3FBF" transform="translate(0,0)"/>
<path d="" fill="#FF00FF" transform="translate(0,0)"/>
<path d="" fill="#7F00FF" transform="translate(0,0)"/>
<path d="" fill="#7F00FF" transform="translate(0,0)"/>
<path d="" fill="#7F3FBF" transform="translate(0,0)"/>
<path d="" fill="#9933CC" transform="translate(0,0)"/>
<path d="" fill="#FF00FF" transform="translate(0,0)"/>
<path d="" fill="#AA55AA" transform="translate(0,0)"/>
<path d="" fill="#FF00FF" transform="translate(0,0)"/>
<path d="" fill="#AA55FF" transform="translate(0,0)"/>
<path d="" fill="#FF00FF" transform="translate(0,0)"/>
<path d="" fill="#FF00FF" transform="translate(0,0)"/>
<path d="" fill="#7F00FF" transform="translate(0,0)"/>
<path d="" fill="#BF3FBF" transform="translate(0,0)"/>
<path d="" fill="#7F00FF" transform="translate(0,0)"/>
<path d="" fill="#FF00FF" transform="translate(0,0)"/>
<path d="" fill="#7F00FF" transform="translate(0,0)"/>
<path d="" fill="#AA55AA" transform="translate(0,0)"/>
<path d="" fill="#BF3FBF" transform="translate(0,0)"/>
<path d="" fill="#AA55AA" transform="translate(0,0)"/>
<path d="" fill="#FF00FF" transform="translate(0,0)"/>
<path d="" fill="#AA55AA" transform="translate(0,0)"/>
<path d="" fill="#FF00FF" transform="translate(0,0)"/>
<path d="" fill="#AA55AA" transform="translate(0,0)"/>
<path d="" fill="#FF00FF" transform="translate(0,0)"/>
<path d="" fill="#7F00FF" transform="translate(0,0)"/>
<path d="" fill="#FF00FF" transform="translate(0,0)"/>
<path d="" fill="#7F00FF" transform="translate(0,0)"/>
<path d="" fill="#FF00FF" transform="translate(0,0)"/>
<path d="" fill="#FF00FF" transform="translate(0,0)"/>
<path d="" fill="#FF00FF" transform="translate(0,0)"/>
<path d="" fill="#9933CC" transform="translate(0,0)"/>
<path d="" fill="#FF00FF" transform="translate(0,0)"/>
<path d="" fill="#FF00FF" transform="translate(0,0)"/>
<path d="" fill="#FF00FF" transform="translate(0,0)"/>
<path d="" fill="#FF00FF" transform="translate(0,0)"/>
<path d="" fill="#9933CC" transform="translate(0,0)"/>
<path d="" fill="#7F00FF" transform="translate(0,0)"/>
<path d="" fill="#FF00FF" transform="translate(0,0)"/>
<path d="" fill="#AA55AA" transform="translate(0,0)"/>
<path d="" fill="#FF00FF" transform="translate(0,0)"/>
<path d="" fill="#FF00FF" transform="translate(0,0)"/>
<path d="" fill="#FF00FF" transform="translate(0,0)"/>
<path d="" fill="#7F00FF" transform="translate(0,0)"/>
<path d="" fill="#7F00FF" transform="translate(0,0)"/>
<path d="" fill="#7F00FF" transform="translate(0,0)"/>
<path d="" fill="#BF3FBF" transform="translate(0,0)"/>
<path d="" fill="#AA55AA" transform="translate(0,0)"/>
<path d="" fill="#FF00FF" transform="translate(0,0)"/>
<path d="" fill="#AA55FF" transform="translate(0,0)"/>
<path d="" fill="#AA55AA" transform="translate(0,0)"/>
<path d="" fill="#FF00FF" transform="translate(0,0)"/>
<path d="" fill="#FF00FF" transform="translate(0,0)"/>
<path d="" fill="#7F00FF" transform="translate(0,0)"/>
<path d="" fill="#FF00FF" transform="translate(0,0)"/>
<path d="" fill="#AA55AA" transform="translate(0,0)"/>
<path d="" fill="#AA55AA" transform="translate(0,0)"/>
<path d="" fill="#FF00FF" transform="translate(0,0)"/>
<path d="" fill="#FF00FF" transform="translate(0,0)"/>
<path d="" fill="#FF00FF" transform="translate(0,0)"/>
<path d="" fill="#FF00FF" transform="translate(0,0)"/>
<path d="" fill="#7F00FF" transform="translate(0,0)"/>
<path d="" fill="#FF00FF" transform="translate(0,0)"/>
<path d="" fill="#FF00FF" transform="translate(0,0)"/>
<path d="" fill="#7F00FF" transform="translate(0,0)"/>
<path d="" fill="#FF00FF" transform="translate(0,0)"/>
<path d="" fill="#7F00FF" transform="translate(0,0)"/>
<path d="" fill="#FF00FF" transform="translate(0,0)"/>
<path d="" fill="#FF00FF" transform="translate(0,0)"/>
<path d="" fill="#7F00FF" transform="translate(0,0)"/>
<path d="" fill="#7F00FF" transform="translate(0,0)"/>
<path d="" fill="#FF00FF" transform="translate(0,0)"/>
<path d="" fill="#FF00FF" transform="translate(0,0)"/>
<path d="" fill="#7F00FF" transform="translate(0,0)"/>
<path d="" fill="#FF00FF" transform="translate(0,0)"/>
<path d="" fill="#FF00FF" transform="translate(0,0)"/>
<path d="" fill="#FF00FF" transform="translate(0,0)"/>
<path d="" fill="#7F00FF" transform="translate(0,0)"/>
<path d="" fill="#FF00FF" transform="translate(0,0)"/>
<path d="" fill="#FF00FF" transform="translate(0,0)"/>
<path d="" fill="#FF00FF" transform="translate(0,0)"/>
</svg>
